<?xml version="1.0" encoding="iso-8859-1"?>
<!-- Generator: Adobe Illustrator 19.0.0, SVG Export Plug-In . SVG Version: 6.00 Build 0)  -->
<svg version="1.1" id="Layer_1" xmlns="http://www.w3.org/2000/svg" xmlns:xlink="http://www.w3.org/1999/xlink" x="0px" y="0px"
	 viewBox="0 0 511.999 511.999" style="enable-background:new 0 0 511.999 511.999;" xml:space="preserve">
<path style="fill:#FF6465;" d="M314.228,406.805L314.228,406.805l-57.699,55.05l-57.709-55.419l-1.058,0.367
	c-43.426,15.222-74.568,56.571-74.568,105.196l0,0h265.615l0,0C388.807,463.372,357.659,422.025,314.228,406.805z"/>
<path style="fill:#F0BB9A;" d="M287.881,401.062v-58.029h-63.763v58.03c-8.766,0.821-17.242,2.641-25.299,5.373
	c1.234,30.814,26.592,55.419,57.709,55.419c30.993,0,56.28-24.408,57.699-55.05C305.858,403.872,297.028,401.922,287.881,401.062z"
	/>
<path style="fill:#D9A382;" d="M224.118,393.692c10.242,2.408,20.915,3.687,31.881,3.687s21.64-1.279,31.882-3.687v-50.658h-63.763
	V393.692z"/>
<path style="fill:#5A4146;" d="M104.89,224.256h302.219c27.906-0.646,33.913-40.156,6.94-48.807l0,0l0,0
	c27.232-8.735,20.863-48.948-7.736-48.84l0,0l0,0c23.199-16.722,4.716-52.998-22.449-44.059l0,0l0,0
	c16.897-23.073-11.892-51.862-34.965-34.965l0,0l0,0c8.94-27.165-27.336-45.648-44.059-22.449l0,0l0,0
	c0.108-28.598-40.105-34.967-48.84-7.736l0,0l0,0c-8.735-27.232-48.948-20.863-48.84,7.736l0,0l0,0
	c-16.722-23.199-52.998-4.716-44.059,22.449l0,0l0,0c-23.073-16.897-51.862,11.892-34.965,34.965l0,0l0,0
	c-27.165-8.94-45.648,27.336-22.449,44.059l0,0l0,0c-28.598-0.108-34.967,40.105-7.736,48.84l0,0l0,0
	C70.978,184.1,76.983,223.61,104.89,224.256"/>
<g>
	<path style="fill:#D9A382;" d="M156.35,205.402c-66.506-29.459-67.129,60.028-11.917,69.74L156.35,205.402z"/>
	<path style="fill:#D9A382;" d="M355.649,205.402c66.506-29.459,67.129,60.028,11.917,69.74L355.649,205.402z"/>
</g>
<path style="fill:#F0BB9A;" d="M255.998,370.951L255.998,370.951c62.323,0,112.845-50.522,112.845-112.845v-84.001
	c0-25.402-8.393-48.843-22.558-67.702c-19.188-25.549-54.077-33.928-82.527-19.386c-5.115,2.615-7.759,4.789-7.759,4.789
	s-2.644-2.174-7.759-4.789c-28.451-14.542-63.339-6.163-82.527,19.386c-14.164,18.859-22.557,42.3-22.557,67.702v84.001
	C143.154,320.429,193.677,370.951,255.998,370.951h0.001H255.998z"/>
<path style="fill:#5B5D6E;" d="M338.139,112.239H173.859c-18.115,0-32.801,14.685-32.801,32.801v97.301
	c0,18.115,14.685,32.801,32.801,32.801h164.282c18.115,0,32.801-14.685,32.801-32.801V145.04
	C370.94,126.924,356.255,112.239,338.139,112.239z"/>
<path style="fill:#C7CFE2;" d="M322.786,143.952H189.212c-9.08,0-16.441,7.361-16.441,16.441v66.595
	c0,9.08,7.361,16.441,16.441,16.441h133.574c9.08,0,16.441-7.361,16.441-16.441v-66.596
	C339.227,151.312,331.867,143.952,322.786,143.952z"/>
<path style="fill:#2A2A33;" d="M256,297.015c-12.444,0-22.532,10.895-22.532,24.335c0,1.678,0.158,3.316,0.457,4.897L256,331.94
	l22.075-5.692c0.299-1.581,0.457-3.22,0.457-4.897C278.531,307.91,268.443,297.015,256,297.015z"/>
<path style="fill:#FF6465;" d="M256,345.685c10.89,0,19.976-8.346,22.075-19.439c-6.681-1.65-14.167-2.575-22.075-2.575
	s-15.394,0.925-22.075,2.575C236.023,337.341,245.109,345.685,256,345.685z"/>
<g>
</g>
<g>
</g>
<g>
</g>
<g>
</g>
<g>
</g>
<g>
</g>
<g>
</g>
<g>
</g>
<g>
</g>
<g>
</g>
<g>
</g>
<g>
</g>
<g>
</g>
<g>
</g>
<g>
</g>
</svg>
