<?xml version="1.0" standalone="no"?>
<!DOCTYPE svg PUBLIC "-//W3C//DTD SVG 20010904//EN"
 "http://www.w3.org/TR/2001/REC-SVG-20010904/DTD/svg10.dtd">
<svg version="1.0" xmlns="http://www.w3.org/2000/svg"
 width="512.000000pt" height="512.000000pt" viewBox="0 0 512.000000 512.000000"
 preserveAspectRatio="xMidYMid meet">

<g transform="translate(0.000000,512.000000) scale(0.100000,-0.100000)"
fill="#000000" stroke="none">
<path d="M1425 1258 c-304 -44 -598 -129 -820 -237 -287 -141 -458 -314 -508
-516 -9 -36 -18 -139 -22 -258 -5 -172 -4 -202 10 -223 l15 -24 1265 0 1264 0
-24 25 c-32 31 -32 69 0 100 21 22 33 25 100 25 l75 0 0 544 0 544 -67 12
c-38 6 -100 14 -140 18 l-72 8 -11 -69 c-46 -270 -314 -449 -573 -382 -201 52
-333 210 -359 431 l-3 21 -130 -19z"/>
<path d="M3368 1052 c-107 -107 -128 -133 -128 -158 0 -25 21 -51 133 -162
104 -103 140 -132 160 -132 37 0 67 33 67 72 0 28 -14 47 -92 125 l-92 93 92
93 c80 82 92 99 92 129 0 44 -25 68 -70 68 -30 0 -49 -15 -162 -128z"/>
<path d="M3837 1163 c-13 -15 -107 -456 -107 -502 0 -21 48 -61 73 -61 56 0
65 19 112 264 25 127 45 240 45 253 0 54 -86 86 -123 46z"/>
<path d="M4116 1158 c-34 -48 -22 -74 76 -175 l92 -93 -92 -93 c-102 -102
-114 -133 -69 -175 47 -44 69 -33 209 106 170 170 170 155 0 324 -117 117
-131 128 -164 128 -27 0 -41 -6 -52 -22z"/>
</g>
</svg>
