<?xml version="1.0" standalone="yes"?>
<svg xmlns="http://www.w3.org/2000/svg" width="512" height="512">
<path style="fill:#010101; stroke:none;" d="M0 0L0 232C21.3725 220.092 15 261.102 15 273C15 277.959 16.4278 285.634 13.3966 289.891C9.45753 295.423 4.61732 292.735 0 290L0 311C8.10399 306.194 36.8942 301.96 43.3966 311.109C47.3991 316.74 45 329.34 45 336C45 344.503 48.0573 360.389 43.9722 367.945C38.3289 378.383 8.19816 373.679 0 369L0 512L9 512C5.62867 504.044 7 494.505 7 486C7 476.458 6.65499 467.15 9.86497 458C23.7948 418.294 73.3202 399.793 111 391.424C128.863 387.457 162.85 389.609 169.91 370C171.955 364.321 174.984 354.204 172.397 348.325C170.687 344.44 165.169 341.553 162 338.919C154.784 332.919 147.576 326.715 141.015 320C120.779 299.29 106.483 275.718 112 246C79.2969 244.502 74.8481 194.969 108 190L108 189C72.7598 187.483 46.1283 152.267 55.7461 118C60.0713 102.59 70.6399 91.2151 84 83C80.6198 75.7602 76.3395 69.3396 76.3395 61C76.3395 36.5316 100.653 24.0011 122 30C128.495 16.2965 137.908 3.41208 154 1C142.068 -4.00671 120.991 0 108 0L0 0z"/>
<path style="fill:#f9d11f; stroke:none;" d="M123 30C88.9009 20.4176 64.4392 53.3397 84 83C59.8388 93.4274 43.5678 131.791 58.5332 155.741C63.6793 163.976 75.9715 170.027 85 172.572C103.789 177.868 124.578 173.116 138.91 159.711C144.367 154.608 148.589 142.369 156.015 140.333C163.931 138.163 176.215 145.957 185 145.999C193.216 146.038 201.423 145.103 209 141.687C214.369 139.266 219.982 133.667 226 133.319C233.959 132.858 242.646 139.994 251 140.829C277.504 143.481 301.157 126.283 306.195 100C310.189 79.1645 299.385 57.706 281 47.5146C274.802 44.0791 265.432 44.2039 260.225 39.5702C256.172 35.9637 255.817 29.7251 253.687 25C250.422 17.7583 245.568 11.5898 239 7.05481C225.028 -2.59277 205.788 -0.520935 199 17L197 17C182.029 -11.6207 126.39 -3.09192 123 30z"/>
<path style="fill:#010101; stroke:none;" d="M172 0L172 1C182.18 2.52588 190.865 8.96991 197 17L199 17C203.518 9.18353 210.928 2.61823 220 1C207.586 -4.20923 185.526 0 172 0z"/>
<path style="fill:#ffa604; stroke:none;" d="M224 0L224 1C236.099 3.86707 246.432 11.966 252.215 23C254.82 27.97 255.394 35.6146 259.419 39.5702C262.849 42.9412 268.669 42.891 273 44.439C279.319 46.6979 284.878 50.2553 289.961 54.6158C314.456 75.6308 310.591 112.523 286 131.471C274.594 140.259 258.833 143.079 245 139.522C238.252 137.786 231.171 131.882 224 133.397C211.846 135.965 203.466 145.366 190 145.961C183.102 146.265 176.57 145.47 170 143.329C165.406 141.831 159.955 138.418 155.04 140.188C146.614 143.223 140.568 158.036 133 163.761C117.391 175.568 95.7458 177.979 78 169.677C71.4125 166.595 66.4761 161.002 60 158C77.6737 198.963 147.917 199.326 161 154C186.582 166.099 211.291 171.84 236 153C239.029 163.495 247.213 172.392 256 178.56C291.015 203.142 341.067 184.603 351.252 143C357.198 118.71 345.521 80.3153 318 74C322.431 63.1955 325.106 53.696 322.486 42C315.742 11.8861 281.718 2.57553 257 17C251.141 3.16174 237.569 0 224 0z"/>
<path style="fill:#f9d11f; stroke:none;" d="M235 0L236 1L235 0z"/>
<path style="fill:#010101; stroke:none;" d="M236 0L236 1C245.073 2.61823 252.482 9.18353 257 17C282.731 5.36148 315.644 10.4191 322.547 43C325.002 54.5869 320.665 62.8864 319 74C370.818 98.5132 358.957 184.185 300 189L300 190C329.166 200.112 326.812 244.497 294 246C294.005 253.683 295.711 261.319 294.711 269C292.361 287.036 280.343 303.332 267.985 316C260.908 323.256 253.686 330.264 246 336.87C242.592 339.798 236.456 343.112 234.603 347.325C232.941 351.103 233.976 357.067 234.59 361C235.659 367.84 237.291 376.833 243.185 381.297C250.962 387.186 268.418 386.142 278 388L278 350C278 345.073 276.978 339.021 281.148 335.434C284.898 332.208 290.416 333 295 333L327 333L446 333C456.306 333 480.738 328.547 488.856 335.434C497.408 342.688 493 366.784 493 377L493 497L512 500L512 0L236 0z"/>
<path style="fill:#ffa604; stroke:none;" d="M186 6L187 7L186 6M190 9L191 10L190 9z"/>
<path style="fill:#f9d11f; stroke:none;" d="M273 10L274 11L273 10M269 11L270 12L269 11M254 12L255 13L254 12M296 12L297 13L296 12M261 14L262 15L261 14M308 19L309 20L308 19M314 25L315 26L314 25z"/>
<path style="fill:#ffa604; stroke:none;" d="M122 29L123 30L122 29z"/>
<path style="fill:#f9d11f; stroke:none;" d="M321 38L322 39L321 38M323 48L324 49L323 48M321 65L322 66L321 65M319 70L320 71L319 70M318.333 72.6667L318.667 73.3333L318.333 72.6667M322 75L323 76L322 75M328 79L329 80L328 79z"/>
<path style="fill:#31ed7d; stroke:none;" d="M392.019 90.7577C386.001 92.9633 387 99.8542 387 105C387 119.137 384.94 135.041 387.148 148.995C387.882 153.634 392.38 156.66 396.981 155.066C403.031 152.971 402 146.118 402 141C402 126.859 404.054 110.963 401.852 97.0038C401.125 92.394 396.676 89.051 392.019 90.7577M422.019 90.7577C416.002 92.9633 417 99.8542 417 105C417 119.137 414.94 135.041 417.148 148.995C417.882 153.634 422.38 156.66 426.981 155.066C433.031 152.971 432 146.118 432 141C432 126.859 434.054 110.963 431.852 97.0038C431.125 92.394 426.676 89.051 422.019 90.7577M452.019 90.7423C443.191 94.2675 447 115.223 447 123C447 130.581 444.195 145.205 448.028 151.867C452.109 158.96 480.1 157.854 486.981 155.106C495.81 151.581 492 130.817 492 123C492 115.343 494.779 100.872 490.972 94.1088C487.066 87.1701 458.825 88.0248 452.019 90.7423z"/>
<path style="fill:#03fe80; stroke:none;" d="M402 98L402 147L403 147C403 133.212 407.309 110.652 402 98M432 98L432 147L433 147C433 133.212 437.309 110.652 432 98M492 98L492 147L493 147C493 133.212 497.309 110.652 492 98M462 106L462 140L463 140L462 106z"/>
<path style="fill:#010101; stroke:none;" d="M463 106L463 140L477 140L477 106L463 106z"/>
<path style="fill:#f9d11f; stroke:none;" d="M350 111L351 112L350 111M351.333 115.667L351.667 116.333L351.333 115.667z"/>
<path style="fill:#ffa604; stroke:none;" d="M55 118L56 119L55 118z"/>
<path style="fill:#f9d11f; stroke:none;" d="M352 135L353 136L352 135M350 145L351 146L350 145z"/>
<path style="fill:#01ff01; stroke:none;" d="M402 147L403 148L402 147M432 147L433 148L432 147M492 147L493 148L492 147z"/>
<path style="fill:#f9d11f; stroke:none;" d="M348 151L349 152L348 151z"/>
<path style="fill:#fbbe5f; stroke:none;" d="M235 153L236 154L235 153M161.667 154.333L162.333 154.667L161.667 154.333z"/>
<path style="fill:#eab399; stroke:none;" d="M234.667 154.333L235.333 154.667L234.667 154.333z"/>
<path style="fill:#fcd2ad; stroke:none;" d="M161 155C154.406 175.831 130.766 188.571 110 189L111 257C146.073 248.886 178.103 235.56 215 238.09C242.947 240.005 267.908 252.999 295 257C289.788 235.107 294.817 212.073 295 190C269.5 190 248.114 177.755 236 155C225.873 157.317 217.662 164.176 207 165.7C188.554 168.335 177.548 158.887 161 155z"/>
<path style="fill:#fbbe5f; stroke:none;" d="M164 155L165 156L164 155M232 155L233 156L232 155M236 155L237 156L236 155z"/>
<path style="fill:#f9d11f; stroke:none;" d="M346 155L347 156L346 155z"/>
<path style="fill:#fbbe5f; stroke:none;" d="M160.333 156.667L160.667 157.333L160.333 156.667M165 156L166 157L165 156M231 156L232 157L231 156z"/>
<path style="fill:#eab399; stroke:none;" d="M236 156L237 157L236 156z"/>
<path style="fill:#fbbe5f; stroke:none;" d="M167 157L168 158L167 157M229 157L230 158L229 157M237 157L238 158L237 157M159.333 158.667L159.667 159.333L159.333 158.667M168 158L169 159L168 158M227 158L228 159L227 158z"/>
<path style="fill:#f9d11f; stroke:none;" d="M60 159L61 160L60 159z"/>
<path style="fill:#fbbe5f; stroke:none;" d="M170 159L171 160L170 159M225 159L226 160L225 159M238 159L239 160L238 159z"/>
<path style="fill:#f9d11f; stroke:none;" d="M344 159L345 160L344 159z"/>
<path style="fill:#fbbe5f; stroke:none;" d="M158 160L159 161L158 160M172 160L173 161L172 160M223 160L224 161L223 160z"/>
<path style="fill:#f9d11f; stroke:none;" d="M61 161L62 162L61 161z"/>
<path style="fill:#fbbe5f; stroke:none;" d="M175 161L176 162L175 161M221 161L222 162L221 161M239 161L240 162L239 161M157 162L158 163L157 162M177.667 162.333L178.333 162.667L177.667 162.333M218.667 162.333L219.333 162.667L218.667 162.333M240 162L241 163L240 162M156 163L157 164L156 163M180.667 163.333L181.333 163.667L180.667 163.333M215.667 163.333L216.333 163.667L215.667 163.333z"/>
<path style="fill:#f9d11f; stroke:none;" d="M63 164L64 165L63 164z"/>
<path style="fill:#eab399; stroke:none;" d="M156 164L157 165L156 164M183 164L184 165L183 164z"/>
<path style="fill:#fbbe5f; stroke:none;" d="M184.667 164.333L185.333 164.667L184.667 164.333M211.667 164.333L212.333 164.667L211.667 164.333M241 164L242 165L241 164M155 165L156 166L155 165M188 165L188 166L192 166L188 165M204 165L204 166L208 166L204 165z"/>
<path style="fill:#eab399; stroke:none;" d="M208 165L209 166L208 165z"/>
<path style="fill:#fbbe5f; stroke:none;" d="M242 165L243 166L242 165z"/>
<path style="fill:#f9d11f; stroke:none;" d="M340 165L341 166L340 165z"/>
<path style="fill:#fbbe5f; stroke:none;" d="M154 166L155 167L154 166M243 166L244 167L243 166z"/>
<path style="fill:#f9d11f; stroke:none;" d="M65 167L66 168L65 167z"/>
<path style="fill:#fbbe5f; stroke:none;" d="M152 169L153 170L152 169M245 169L246 170L245 169M151 170L152 171L151 170M246 170L247 171L246 170z"/>
<path style="fill:#31ed7d; stroke:none;" d="M361.109 171.028C356.177 173.792 357 180.223 357 185C356.999 198.284 353.826 216.208 357.434 228.985C358.805 233.842 364.381 236.332 368.891 233.82C373.831 231.069 373 224.789 373 220C373.001 206.546 376.009 189.025 372.682 176.005C371.427 171.091 365.635 168.49 361.109 171.028M391.109 170.742C383.46 174.032 387 195.067 387 202C387 209.613 384.051 225.093 388.179 231.656C390.108 234.723 393.738 234.939 397 234.995C405.516 235.142 420.087 237.699 427.891 234.142C435.558 230.648 432 210.069 432 203C432 195.269 434.927 179.944 430.821 173.228C428.917 170.115 425.254 170.049 422 170.004C413.4 169.884 399.052 167.326 391.109 170.742M451.109 170.743C445.547 173.102 447 181.16 447 186C447 199.725 445.544 214.354 447.109 227.985C447.718 233.291 452.826 236.413 457.891 234.141C463.429 231.658 462 223.916 462 219C462 205.264 463.438 190.648 461.891 177.004C461.281 171.622 456.299 168.542 451.109 170.743M481.109 170.743C475.547 173.102 477 181.16 477 186C477 199.725 475.544 214.354 477.109 227.985C477.718 233.291 482.826 236.413 487.891 234.141C493.429 231.658 492 223.916 492 219C492 205.264 493.438 190.648 491.891 177.004C491.281 171.622 486.299 168.542 481.109 170.743z"/>
<path style="fill:#fbbe5f; stroke:none;" d="M150 171L151 172L150 171M247 171L248 172L247 171z"/>
<path style="fill:#f9d11f; stroke:none;" d="M335 171L336 172L335 171z"/>
<path style="fill:#fbbe5f; stroke:none;" d="M149 172L150 173L149 172M248 172L249 173L248 172M148 173L149 174L148 173M249 173L250 174L249 173M147 174L148 175L147 174M250 174L251 175L250 174M146 175L147 176L146 175z"/>
<path style="fill:#eab399; stroke:none;" d="M251 175L252 176L251 175M145 176L146 177L145 176z"/>
<path style="fill:#fbbe5f; stroke:none;" d="M253 176L254 177L253 176M143 177L144 178L143 177M254 177L255 178L254 177z"/>
<path style="fill:#01ff01; stroke:none;" d="M432 177L433 178L432 177M462 177L463 178L462 177M492 177L493 178L492 177z"/>
<path style="fill:#fbbe5f; stroke:none;" d="M142 178L143 179L142 178M255 178L256 179L255 178z"/>
<path style="fill:#03fe80; stroke:none;" d="M432 178L432 227L433 227C433 213.212 437.309 190.652 432 178M462 178L462 227L463 227C463 213.212 467.309 190.652 462 178M492 178L492 227L493 227C493 213.212 497.309 190.652 492 178z"/>
<path style="fill:#fbbe5f; stroke:none;" d="M140 179L141 180L140 179M257 179L258 180L257 179M139 180L140 181L139 180M258 180L259 181L258 180M137 181L138 182L137 181M260 181L261 182L260 181z"/>
<path style="fill:#f9d11f; stroke:none;" d="M322 181L323 182L322 181z"/>
<path style="fill:#fbbe5f; stroke:none;" d="M135 182L136 183L135 182z"/>
<path style="fill:#eab399; stroke:none;" d="M136 182L137 183L136 182z"/>
<path style="fill:#fbbe5f; stroke:none;" d="M262 182L263 183L262 182z"/>
<path style="fill:#f9d11f; stroke:none;" d="M85 183L86 184L85 183z"/>
<path style="fill:#fbbe5f; stroke:none;" d="M133 183L134 184L133 183z"/>
<path style="fill:#eab399; stroke:none;" d="M134 183L135 184L134 183M263 183L264 184L263 183z"/>
<path style="fill:#fbbe5f; stroke:none;" d="M264 183L265 184L264 183z"/>
<path style="fill:#f9d11f; stroke:none;" d="M318 183L319 184L318 183z"/>
<path style="fill:#fbbe5f; stroke:none;" d="M131 184L132 185L131 184M266 184L267 185L266 184z"/>
<path style="fill:#f9d11f; stroke:none;" d="M90 185L91 186L90 185z"/>
<path style="fill:#fbbe5f; stroke:none;" d="M128.667 185.333L129.333 185.667L128.667 185.333M268.667 185.333L269.333 185.667L268.667 185.333M125.667 186.333L126.333 186.667L125.667 186.333M271 186L272 187L271 186z"/>
<path style="fill:#03fe80; stroke:none;" d="M402 186L402 219L403 219L402 186z"/>
<path style="fill:#010101; stroke:none;" d="M403 186L403 219L417 219L417 186L403 186z"/>
<path style="fill:#fbbe5f; stroke:none;" d="M120 187L120 188L123 188L120 187M274.667 187.333L275.333 187.667L274.667 187.333M112 188L112 189L117 189L112 188z"/>
<path style="fill:#eab399; stroke:none;" d="M277 188L278 189L277 188z"/>
<path style="fill:#fbbe5f; stroke:none;" d="M278.667 188.333L279.333 188.667L278.667 188.333z"/>
<path style="fill:#ef9f89; stroke:none;" d="M112 246L110 189C77.0997 195.809 76.0537 244.433 112 246z"/>
<path style="fill:#eab399; stroke:none;" d="M283 189L284 190L283 189z"/>
<path style="fill:#fbbe5f; stroke:none;" d="M284 189L284 190L291 190L284 189M292 189L292 190L295 190L292 189z"/>
<path style="fill:#f9d11f; stroke:none;" d="M299 189L300 190L299 189z"/>
<path style="fill:#eab399; stroke:none;" d="M295 190L296 191L295 190z"/>
<path style="fill:#ef9f89; stroke:none;" d="M294 246C315.844 245.048 329.533 219.394 316.362 201.001C313.654 197.22 301.145 185.193 296.028 191.604C291.638 197.104 294 215.094 294 222L294 246z"/>
<path style="fill:#eab399; stroke:none;" d="M110 192L110 197L111 197L110 192z"/>
<path style="fill:#ebeef3; stroke:none;" d="M97 193L98 194L97 193z"/>
<path style="fill:#eab399; stroke:none;" d="M294 197L294 205L295 205L294 197M87 204L88 205L87 204M111 205L111 213L112 213L111 205z"/>
<path style="fill:#ebeef3; stroke:none;" d="M86 206L87 207L86 206z"/>
<path style="fill:#eab399; stroke:none;" d="M84 215L85 216L84 215M293 215L293 246L294 246L293 215z"/>
<path style="fill:#31ed7d; stroke:none;" d="M7.00077 228.788C-0.444752 229.217 0.000358036 236.432 0 242C-0.000878701 255.666 -0.0932529 269.335 0.000771605 283C0.0357972 288.091 1.5136 294.124 7.99923 293.663C14.9454 293.169 14.9976 286.261 15 281L15 240C14.9886 234.471 14.1007 228.379 7.00077 228.788M38.0008 228.788C30.5552 229.217 31.0004 236.432 31 242C30.9991 255.666 30.9067 269.335 31.0008 283C31.0358 288.091 32.5136 294.124 38.9992 293.663C45.9454 293.169 45.9976 286.261 46 281L46 240C45.9886 234.471 45.1007 228.379 38.0008 228.788z"/>
<path style="fill:#eab399; stroke:none;" d="M318 230L319 231L318 230z"/>
<path style="fill:#01ff01; stroke:none;" d="M389 233L390 234L389 233M429 233L430 234L429 233M449 233L450 234L449 233M459 233L460 234L459 233M479 233L480 234L479 233M489 233L490 234L489 233z"/>
<path style="fill:#ebeef3; stroke:none;" d="M90 235L91 236L90 235z"/>
<path style="fill:#eab399; stroke:none;" d="M91 236L92 237L91 236z"/>
<path style="fill:#f5e1d1; stroke:none;" d="M187 238L187 239L194 239L187 238z"/>
<path style="fill:#ebeef3; stroke:none;" d="M111 257C111 277.272 116.653 292.099 129.615 308C156.681 341.202 194.598 369.415 237 344.738C245.433 339.83 253.136 331.853 260 325C273.182 311.839 286.105 297.941 292.304 280C294.202 274.508 297.008 264.93 294.397 259.278C292.499 255.171 283.936 253.906 280 252.72C265.455 248.338 250.942 244.411 236 241.611C220.098 238.631 205.046 238.071 189 238.965C161.716 240.484 137.437 253.096 111 257z"/>
<path style="fill:#f5e1d1; stroke:none;" d="M212 238L212 239L219 239L212 238M179 239L179 240L183 240L179 239M222 239L222 240L226 240L222 239z"/>
<path style="fill:#ebeef3; stroke:none;" d="M311 239L312 240L311 239z"/>
<path style="fill:#f5e1d1; stroke:none;" d="M173 240L173 241L176 241L173 240M229 240L229 241L233 241L229 240M167 241L167 242L170 242L167 241M235 241L235 242L238 242L235 241M163.667 242.333L164.333 242.667L163.667 242.333M240 242L240 243L243 243L240 242M158.667 243.333L159.333 243.667L158.667 243.333M245 243L245 244L248 244L245 243M154.667 244.333L155.333 244.667L154.667 244.333M250.667 244.333L251.333 244.667L250.667 244.333z"/>
<path style="fill:#eab399; stroke:none;" d="M106 245L107 246L106 245z"/>
<path style="fill:#f5e1d1; stroke:none;" d="M150.667 245.333L151.333 245.667L150.667 245.333M254.667 245.333L255.333 245.667L254.667 245.333z"/>
<path style="fill:#ebeef3; stroke:none;" d="M299 245L300 246L299 245z"/>
<path style="fill:#f5e1d1; stroke:none;" d="M146.667 246.333L147.333 246.667L146.667 246.333M258.667 246.333L259.333 246.667L258.667 246.333M142.667 247.333L143.333 247.667L142.667 247.333M262.667 247.333L263.333 247.667L262.667 247.333M111 248L112 249L111 248M138 248L138 249L141 249L138 248M265.667 248.333L266.333 248.667L265.667 248.333M135.667 249.333L136.333 249.667L135.667 249.333M269.667 249.333L270.333 249.667L269.667 249.333z"/>
<path style="fill:#31ed7d; stroke:none;" d="M331.109 250.028C323.747 254.172 327 271.842 327 279C327 287.264 324.062 302.578 328.179 309.891C329.847 312.854 332.808 313.756 336 313.956C344.287 314.475 361.58 316.937 368.891 312.821C376.252 308.677 373 291.178 373 284C373 275.777 375.967 260.352 371.972 253.059C367.836 245.506 348.381 249 341 249C337.88 249 333.941 248.434 331.109 250.028M391.109 249.743C385.769 252.008 387 259.327 387 264C387 277.454 383.991 294.975 387.318 307.995C388.504 312.638 393.454 315.129 397.891 313.141C403.429 310.66 402 302.914 402 298C402 284.264 403.438 269.648 401.891 256.004C401.281 250.622 396.299 247.542 391.109 249.743M421.109 249.743C415.769 252.008 417 259.327 417 264C417 277.454 413.991 294.975 417.318 307.995C418.504 312.638 423.454 315.129 427.891 313.141C433.429 310.66 432 302.914 432 298C432 284.264 433.438 269.648 431.891 256.004C431.281 250.622 426.299 247.542 421.109 249.743M451.109 249.742C443.46 253.032 447 274.067 447 281C447 288.755 444.253 303.05 448.028 309.941C449.718 313.028 452.725 313.839 456 313.981C464.58 314.352 480.035 316.723 487.891 313.142C495.558 309.648 492 289.069 492 282C492 274.269 494.927 258.944 490.821 252.228C488.917 249.115 485.254 249.049 482 249.004C473.4 248.884 459.052 246.326 451.109 249.742z"/>
<path style="fill:#f5e1d1; stroke:none;" d="M131.667 250.333L132.333 250.667L131.667 250.333M272 250L273 251L272 250M128.667 251.333L129.333 251.667L128.667 251.333M275.667 251.333L276.333 251.667L275.667 251.333M125.667 252.333L126.333 252.667L125.667 252.333M279 252L280 253L279 252M122.667 253.333L123.333 253.667L122.667 253.333M282 253L283 254L282 253M119.667 254.333L120.333 254.667L119.667 254.333M285 254L286 255L285 254M116.667 255.333L117.333 255.667L116.667 255.333M288 255L289 256L288 255z"/>
<path style="fill:#fff9a3; stroke:none;" d="M294 255L295 256L294 255z"/>
<path style="fill:#f5e1d1; stroke:none;" d="M113.667 256.333L114.333 256.667L113.667 256.333M291 256L292 257L291 256z"/>
<path style="fill:#01ff01; stroke:none;" d="M402 256L403 257L402 256M432 256L433 257L432 256M492 256L493 257L492 256z"/>
<path style="fill:#f5e1d1; stroke:none;" d="M294 257L295 258L294 257z"/>
<path style="fill:#03fe80; stroke:none;" d="M402 257L402 306L403 306C403 292.212 407.309 269.652 402 257M432 257L432 306L433 306C433 292.212 437.309 269.652 432 257M492 257L492 306L493 306C493 292.212 497.309 269.652 492 257z"/>
<path style="fill:#010101; stroke:none;" d="M343 265L343 298L357 298L357 265L343 265z"/>
<path style="fill:#03fe80; stroke:none;" d="M462 265L462 298L463 298L462 265z"/>
<path style="fill:#010101; stroke:none;" d="M463 265L463 298L477 298L477 265L463 265z"/>
<path style="fill:#31ed7d; stroke:none;" d="M5.01929 307.742C-3.80943 311.267 0 332.223 0 340C0 347.531 -2.82256 362.261 1.02778 368.856C5.27223 376.125 32.9879 374.662 39.9807 371.968C48.8057 368.567 45 347.775 45 340C45 332.343 47.779 317.871 43.9722 311.109C40.0664 304.17 11.8251 305.025 5.01929 307.742M64.044 307.757C58.1767 309.982 59.0003 316.932 59 322C58.9991 335.96 56.6499 352.273 59.2284 365.985C60.0626 370.42 64.5144 373.396 68.9846 372.013C74.8818 370.189 74.9915 364.096 75 359C75.0237 344.833 77.5487 327.87 74.6559 314.005C73.6506 309.186 68.9474 305.898 64.044 307.757z"/>
<path style="fill:#03fe80; stroke:none;" d="M69 307L70 308L69 307z"/>
<path style="fill:#31ed7d; stroke:none;" d="M94.044 307.757C88.1767 309.982 89.0003 316.932 89 322C88.9991 335.96 86.6499 352.273 89.2284 365.985C90.0626 370.42 94.5143 373.396 98.9846 372.013C104.882 370.189 104.991 364.096 105 359C105.024 344.833 107.549 327.87 104.656 314.005C103.651 309.186 98.9474 305.898 94.044 307.757z"/>
<path style="fill:#03fe80; stroke:none;" d="M99 307L100 308L99 307M388 311L389 312L388 311M418 311L419 312L418 311M448 311L449 312L448 311M74 312L75 313L74 312M104 312L105 313L104 312z"/>
<path style="fill:#01ff01; stroke:none;" d="M399 312L400 313L399 312M429 312L430 313L429 312M489 312L490 313L489 312z"/>
<path style="fill:#010101; stroke:none;" d="M15 323L15 357L30 357L30 323L15 323z"/>
<path style="fill:#ebeef3; stroke:none;" d="M278 497C272.471 497 251.786 497.608 260.603 508.721C264.038 513.051 271.149 512 276 512L316 512L459 512L495 512C499.2 512 506.226 513.309 509.682 510.397C522.815 499.331 498.577 497 493 497L493 382C493 370.42 497.441 347.076 491.062 337.109C488.138 332.541 482.755 333.002 478 333L445 333L321 333L292 333C287.761 333.002 282.526 332.443 279.603 336.228C277.043 339.545 278 345.08 278 349L278 379L278 497z"/>
<path style="fill:#f5e1d1; stroke:none;" d="M232.667 346.333L233.333 346.667L232.667 346.333M173.667 347.333L174.333 347.667L173.667 347.333z"/>
<path style="fill:#fcd2ad; stroke:none;" d="M173 348C172.999 361.488 170.462 378.943 156 384C157.86 398.703 162.168 410.91 174 420.671C194.492 437.577 228.378 431.545 242.073 409C245.219 403.822 251.947 390.465 247.971 384.495C245.005 380.04 240.246 378.447 237.88 373C234.324 364.816 234 355.768 234 347L207 354.91L173 348z"/>
<path style="fill:#f5e1d1; stroke:none;" d="M176 348L177 349L176 348M229 348L230 349L229 348M178 349L179 350L178 349M227 349L228 350L227 349M180 350L181 351L180 350M224 350L225 351L224 350M183 351L184 352L183 351M222 351L223 352L222 351M186 352L187 353L186 352M219 352L220 353L219 352M189.667 353.333L190.333 353.667L189.667 353.333M215 353L216 354L215 353M195 354L195 355L198 355L195 354M208 354L208 355L211 355L208 354z"/>
<path style="fill:#01ff01; stroke:none;" d="M72 370L73 371L72 370M102 370L103 371L102 370M6 372L7 373L6 372M38 372L39 373L38 372z"/>
<path style="fill:#ebeef3; stroke:none;" d="M237 372L238 373L237 372z"/>
<path style="fill:#fff9a3; stroke:none;" d="M240 378L241 379L240 378z"/>
<path style="fill:#ebeef3; stroke:none;" d="M163 380L164 381L163 380z"/>
<path style="fill:#f5e1d1; stroke:none;" d="M162 381L163 382L162 381z"/>
<path style="fill:#fff9a3; stroke:none;" d="M157 383L158 384L157 383z"/>
<path style="fill:#415f6f; stroke:none;" d="M7 491L278 491L278 391L250 384C249.674 391.569 247.798 399.305 244.204 406C221.451 448.394 156.032 431.694 156 384C142.7 384.037 128.925 387.147 116 390.119C79.9733 398.403 33.4395 412.174 14.3133 447C6.6249 460.999 7 475.541 7 491z"/>
<path style="fill:#899090; stroke:none;" d="M249 384L249 387L250 387L249 384z"/>
<path style="fill:#144151; stroke:none;" d="M252 384L252 385L264 386L252 384z"/>
<path style="fill:#013343; stroke:none;" d="M262 386L262 387L278 391C275.044 386.387 267.12 386.405 262 386z"/>
<path style="fill:#144151; stroke:none;" d="M266 386L266 387L270 387L266 386z"/>
<path style="fill:#415f6f; stroke:none;" d="M270 386L271 387L270 386z"/>
<path style="fill:#eab399; stroke:none;" d="M156.333 387.667L156.667 388.333L156.333 387.667z"/>
<path style="fill:#728692; stroke:none;" d="M249.333 387.667L249.667 388.333L249.333 387.667z"/>
<path style="fill:#144151; stroke:none;" d="M264.667 387.333L265.333 387.667L264.667 387.333M272 387L272 388L276 388L272 387M268.667 388.333L269.333 388.667L268.667 388.333M277 388L278 389L277 388z"/>
<path style="fill:#b0a798; stroke:none;" d="M156.333 389.667L156.667 390.333L156.333 389.667z"/>
<path style="fill:#526c7b; stroke:none;" d="M249 389L250 390L249 389z"/>
<path style="fill:#144151; stroke:none;" d="M272 389L273 390L272 389M275.667 390.333L276.333 390.667L275.667 390.333z"/>
<path style="fill:#899090; stroke:none;" d="M156 391L157 392L156 391z"/>
<path style="fill:#eab399; stroke:none;" d="M248 391L249 392L248 391z"/>
<path style="fill:#526c7b; stroke:none;" d="M156.333 392.667L156.667 393.333L156.333 392.667z"/>
<path style="fill:#b0a798; stroke:none;" d="M248.333 392.667L248.667 393.333L248.333 392.667z"/>
<path style="fill:#728692; stroke:none;" d="M102 393L103 394L102 393z"/>
<path style="fill:#c9d1d9; stroke:none;" d="M350 393L351 394L350 393z"/>
<path style="fill:#9faeb8; stroke:none;" d="M351 393L352 394L351 393z"/>
<path style="fill:#899090; stroke:none;" d="M352.667 393.333L353.333 393.667L352.667 393.333z"/>
<path style="fill:#9faeb8; stroke:none;" d="M354 393L355 394L354 393z"/>
<path style="fill:#c9d1d9; stroke:none;" d="M355 393L356 394L355 393M386 393L387 394L386 393z"/>
<path style="fill:#9faeb8; stroke:none;" d="M387 393L388 394L387 393z"/>
<path style="fill:#899090; stroke:none;" d="M388.667 393.333L389.333 393.667L388.667 393.333z"/>
<path style="fill:#9faeb8; stroke:none;" d="M390 393L391 394L390 393z"/>
<path style="fill:#c9d1d9; stroke:none;" d="M391 393L392 394L391 393M414 393L415 394L414 393z"/>
<path style="fill:#9faeb8; stroke:none;" d="M415 393L416 394L415 393z"/>
<path style="fill:#899090; stroke:none;" d="M416.667 393.333L417.333 393.667L416.667 393.333z"/>
<path style="fill:#9faeb8; stroke:none;" d="M418 393L419 394L418 393z"/>
<path style="fill:#c9d1d9; stroke:none;" d="M419 393L420 394L419 393z"/>
<path style="fill:#eab399; stroke:none;" d="M157 394L158 395L157 394z"/>
<path style="fill:#728692; stroke:none;" d="M248 394L249 395L248 394M349 394L350 395L349 394z"/>
<path style="fill:#415f6f; stroke:none;" d="M341 423L351 413C353.884 410.114 358.031 406.996 359.381 403C361.164 397.724 356.275 392.836 351 394.619C343.406 397.185 328.578 412.779 325.194 420C321.182 428.562 339.56 441.857 345 446.956C347.673 449.462 351.003 452.542 354.981 451.214C369.94 446.219 346.119 426.606 341 423z"/>
<path style="fill:#728692; stroke:none;" d="M356 394L357 395L356 394z"/>
<path style="fill:#c9d1d9; stroke:none;" d="M357 394L358 395L357 394M384 394L385 395L384 394z"/>
<path style="fill:#728692; stroke:none;" d="M385 394L386 395L385 394z"/>
<path style="fill:#415f6f; stroke:none;" d="M386.109 394.747C381.555 396.606 381.23 402.847 380.4 407C378.082 418.587 373.468 432.182 373.642 443.996C373.712 448.761 378.038 452.838 382.892 450.948C387.54 449.138 387.957 443.206 388.8 439C391.078 427.633 396.755 412.539 395.762 401.001C395.36 396.323 390.66 392.889 386.109 394.747z"/>
<path style="fill:#728692; stroke:none;" d="M392 394L393 395L392 394z"/>
<path style="fill:#c9d1d9; stroke:none;" d="M412 394L410 397L412 394z"/>
<path style="fill:#728692; stroke:none;" d="M413 394L414 395L413 394z"/>
<path style="fill:#415f6f; stroke:none;" d="M429 422L419 432C415.936 435.069 411.423 438.525 410.478 443C409.442 447.901 414.006 452.812 419 451.214C426.714 448.745 441.328 433.226 444.816 426C449.203 416.915 430.924 403.293 425 398.189C422.305 395.867 418.773 393.326 415.019 394.622C400.529 399.624 423.894 418.403 429 422z"/>
<path style="fill:#728692; stroke:none;" d="M420 394L421 395L420 394z"/>
<path style="fill:#c9d1d9; stroke:none;" d="M421 394L423 396L421 394z"/>
<path style="fill:#b0a798; stroke:none;" d="M157 395L158 396L157 395z"/>
<path style="fill:#c9d1d9; stroke:none;" d="M347 395L325 418C331.515 413.411 345.101 402.832 347 395z"/>
<path style="fill:#526c7b; stroke:none;" d="M348 395L349 396L348 395z"/>
<path style="fill:#c9d1d9; stroke:none;" d="M358 395L359 396L358 395z"/>
<path style="fill:#9faeb8; stroke:none;" d="M383 395L384 396L383 395z"/>
<path style="fill:#526c7b; stroke:none;" d="M393 395L395 397L393 395z"/>
<path style="fill:#c9d1d9; stroke:none;" d="M394 395L395 396L394 395z"/>
<path style="fill:#526c7b; stroke:none;" d="M412 395L413 396L412 395M421 395L422 396L421 395z"/>
<path style="fill:#728692; stroke:none;" d="M157 396L158 397L157 396z"/>
<path style="fill:#eab399; stroke:none;" d="M247 396L248 397L247 396z"/>
<path style="fill:#526c7b; stroke:none;" d="M347 396L348 397L347 396z"/>
<path style="fill:#c9d1d9; stroke:none;" d="M359 396L360 397L359 396M382 396L383 397L382 396z"/>
<path style="fill:#526c7b; stroke:none;" d="M411 396L412 397L411 396z"/>
<path style="fill:#c9d1d9; stroke:none;" d="M423 396L424 397L423 396z"/>
<path style="fill:#526c7b; stroke:none;" d="M157 397L158 398L157 397z"/>
<path style="fill:#b0a798; stroke:none;" d="M247 397L248 398L247 397z"/>
<path style="fill:#526c7b; stroke:none;" d="M346 397L347 398L346 397z"/>
<path style="fill:#728692; stroke:none;" d="M359 397L360 398L359 397M382 397L383 398L382 397z"/>
<path style="fill:#899090; stroke:none;" d="M395 397L396 398L395 397z"/>
<path style="fill:#728692; stroke:none;" d="M410 397L411 398L410 397z"/>
<path style="fill:#c9d1d9; stroke:none;" d="M424 397L425 398L424 397z"/>
<path style="fill:#eab399; stroke:none;" d="M158 398L159 399L158 398z"/>
<path style="fill:#526c7b; stroke:none;" d="M247 398L248 399L247 398M345 398L346 399L345 398z"/>
<path style="fill:#c9d1d9; stroke:none;" d="M360 398L361 399L360 398M381 398L382 399L381 398M425 398L426 399L425 398z"/>
<path style="fill:#899090; stroke:none;" d="M158 399L159 400L158 399z"/>
<path style="fill:#eab399; stroke:none;" d="M246 399L247 400L246 399z"/>
<path style="fill:#526c7b; stroke:none;" d="M344 399L345 400L344 399z"/>
<path style="fill:#9faeb8; stroke:none;" d="M360 399L361 400L360 399M381 399L382 400L381 399z"/>
<path style="fill:#c9d1d9; stroke:none;" d="M396 399L397 400L396 399z"/>
<path style="fill:#9faeb8; stroke:none;" d="M409 399L409 402L410 402L409 399z"/>
<path style="fill:#c9d1d9; stroke:none;" d="M426 399L427 400L426 399z"/>
<path style="fill:#899090; stroke:none;" d="M246 400L247 401L246 400z"/>
<path style="fill:#526c7b; stroke:none;" d="M343 400L344 401L343 400z"/>
<path style="fill:#899090; stroke:none;" d="M360 400L361 401L360 400M381 400L382 401L381 400z"/>
<path style="fill:#9faeb8; stroke:none;" d="M396 400L397 401L396 400z"/>
<path style="fill:#c9d1d9; stroke:none;" d="M427 400L428 401L427 400z"/>
<path style="fill:#b0a798; stroke:none;" d="M159 401L160 402L159 401z"/>
<path style="fill:#526c7b; stroke:none;" d="M246 401L247 402L246 401M342 401L343 402L342 401z"/>
<path style="fill:#9faeb8; stroke:none;" d="M360.333 401.667L360.667 402.333L360.333 401.667z"/>
<path style="fill:#526c7b; stroke:none;" d="M381 401L382 402L381 401z"/>
<path style="fill:#c9d1d9; stroke:none;" d="M396.333 401.667L396.667 402.333L396.333 401.667M428 401L429 402L428 401z"/>
<path style="fill:#728692; stroke:none;" d="M159 402L160 403L159 402z"/>
<path style="fill:#b0a798; stroke:none;" d="M245 402L246 403L245 402z"/>
<path style="fill:#526c7b; stroke:none;" d="M341 402L342 403L341 402z"/>
<path style="fill:#c9d1d9; stroke:none;" d="M409 402L410 403L409 402M429 402L430 403L429 402z"/>
<path style="fill:#eab399; stroke:none;" d="M160 403L161 404L160 403z"/>
<path style="fill:#728692; stroke:none;" d="M245 403L246 404L245 403z"/>
<path style="fill:#526c7b; stroke:none;" d="M340 403L341 404L340 403z"/>
<path style="fill:#c9d1d9; stroke:none;" d="M380 403L381 404L380 403M430 403L431 404L430 403z"/>
<path style="fill:#728692; stroke:none;" d="M160 404L161 405L160 404z"/>
<path style="fill:#eab399; stroke:none;" d="M244 404L245 405L244 404z"/>
<path style="fill:#526c7b; stroke:none;" d="M339 404L340 405L339 404z"/>
<path style="fill:#899090; stroke:none;" d="M359 404L360 405L359 404z"/>
<path style="fill:#9faeb8; stroke:none;" d="M380 404L381 405L380 404z"/>
<path style="fill:#526c7b; stroke:none;" d="M395 404L396 405L395 404z"/>
<path style="fill:#9faeb8; stroke:none;" d="M410 404L411 405L410 404z"/>
<path style="fill:#c9d1d9; stroke:none;" d="M431 404L432 405L431 404z"/>
<path style="fill:#eab399; stroke:none;" d="M161 405L162 406L161 405z"/>
<path style="fill:#728692; stroke:none;" d="M244 405L245 406L244 405z"/>
<path style="fill:#526c7b; stroke:none;" d="M338 405L339 406L338 405M358 405L341 423C346.441 419.167 356.403 411.59 358 405z"/>
<path style="fill:#899090; stroke:none;" d="M380 405L381 406L380 405M395 405L396 406L395 405z"/>
<path style="fill:#728692; stroke:none;" d="M411 405L412 406L411 405z"/>
<path style="fill:#c9d1d9; stroke:none;" d="M432 405L433 406L432 405z"/>
<path style="fill:#728692; stroke:none;" d="M161 406L162 407L161 406z"/>
<path style="fill:#eab399; stroke:none;" d="M243 406L244 407L243 406z"/>
<path style="fill:#526c7b; stroke:none;" d="M337 406L338 407L337 406z"/>
<path style="fill:#c9d1d9; stroke:none;" d="M358 406L359 407L358 406z"/>
<path style="fill:#526c7b; stroke:none;" d="M380 406L381 407L380 406z"/>
<path style="fill:#9faeb8; stroke:none;" d="M395 406L396 407L395 406z"/>
<path style="fill:#526c7b; stroke:none;" d="M412 406L413 407L412 406z"/>
<path style="fill:#c9d1d9; stroke:none;" d="M433 406L434 407L433 406z"/>
<path style="fill:#b0a798; stroke:none;" d="M162 407L163 408L162 407z"/>
<path style="fill:#526c7b; stroke:none;" d="M243 407L244 408L243 407M336 407L337 408L336 407z"/>
<path style="fill:#c9d1d9; stroke:none;" d="M357 407L358 408L357 407M395 407L396 408L395 407z"/>
<path style="fill:#526c7b; stroke:none;" d="M413 407L414 408L413 407z"/>
<path style="fill:#c9d1d9; stroke:none;" d="M434 407L435 408L434 407z"/>
<path style="fill:#526c7b; stroke:none;" d="M162 408L163 409L162 408z"/>
<path style="fill:#b0a798; stroke:none;" d="M242 408L243 409L242 408z"/>
<path style="fill:#526c7b; stroke:none;" d="M335 408L336 409L335 408z"/>
<path style="fill:#c9d1d9; stroke:none;" d="M356 408L357 409L356 408M379 408L380 409L379 408z"/>
<path style="fill:#526c7b; stroke:none;" d="M414 408L415 409L414 408z"/>
<path style="fill:#c9d1d9; stroke:none;" d="M435 408L436 409L435 408z"/>
<path style="fill:#899090; stroke:none;" d="M163 409L164 410L163 409z"/>
<path style="fill:#526c7b; stroke:none;" d="M242 409L243 410L242 409M334 409L335 410L334 409z"/>
<path style="fill:#c9d1d9; stroke:none;" d="M355 409L356 410L355 409z"/>
<path style="fill:#9faeb8; stroke:none;" d="M379 409L380 410L379 409z"/>
<path style="fill:#526c7b; stroke:none;" d="M394 409L395 410L394 409M415 409L416 410L415 409z"/>
<path style="fill:#c9d1d9; stroke:none;" d="M436 409L437 410L436 409z"/>
<path style="fill:#eab399; stroke:none;" d="M164 410L165 411L164 410z"/>
<path style="fill:#728692; stroke:none;" d="M241 410L242 411L241 410z"/>
<path style="fill:#526c7b; stroke:none;" d="M333 410L334 411L333 410z"/>
<path style="fill:#c9d1d9; stroke:none;" d="M354 410L355 411L354 410z"/>
<path style="fill:#899090; stroke:none;" d="M379 410L380 411L379 410z"/>
<path style="fill:#728692; stroke:none;" d="M394 410L395 411L394 410z"/>
<path style="fill:#526c7b; stroke:none;" d="M416 410L417 411L416 410z"/>
<path style="fill:#c9d1d9; stroke:none;" d="M437 410L438 411L437 410z"/>
<path style="fill:#526c7b; stroke:none;" d="M164 411L165 412L164 411z"/>
<path style="fill:#b0a798; stroke:none;" d="M240 411L241 412L240 411z"/>
<path style="fill:#526c7b; stroke:none;" d="M332 411L333 412L332 411z"/>
<path style="fill:#c9d1d9; stroke:none;" d="M353 411L354 412L353 411z"/>
<path style="fill:#728692; stroke:none;" d="M379 411L380 412L379 411z"/>
<path style="fill:#9faeb8; stroke:none;" d="M394 411L395 412L394 411z"/>
<path style="fill:#526c7b; stroke:none;" d="M417 411L418 412L417 411z"/>
<path style="fill:#c9d1d9; stroke:none;" d="M438 411L439 412L438 411z"/>
<path style="fill:#728692; stroke:none;" d="M165 412L166 413L165 412z"/>
<path style="fill:#eab399; stroke:none;" d="M239 412L240 413L239 412z"/>
<path style="fill:#526c7b; stroke:none;" d="M331 412L332 413L331 412z"/>
<path style="fill:#c9d1d9; stroke:none;" d="M352 412L353 413L352 412M394 412L395 413L394 412z"/>
<path style="fill:#526c7b; stroke:none;" d="M418 412L419 413L418 412z"/>
<path style="fill:#c9d1d9; stroke:none;" d="M439 412L440 413L439 412z"/>
<path style="fill:#b0a798; stroke:none;" d="M166 413L167 414L166 413z"/>
<path style="fill:#526c7b; stroke:none;" d="M239 413L240 414L239 413M330 413L331 414L330 413z"/>
<path style="fill:#c9d1d9; stroke:none;" d="M351 413L352 414L351 413M378 413L379 414L378 413z"/>
<path style="fill:#526c7b; stroke:none;" d="M419 413L420 414L419 413z"/>
<path style="fill:#c9d1d9; stroke:none;" d="M440 413L441 414L440 413z"/>
<path style="fill:#526c7b; stroke:none;" d="M49 414L50 415L49 414z"/>
<path style="fill:#b0a798; stroke:none;" d="M167 414L168 415L167 414z"/>
<path style="fill:#728692; stroke:none;" d="M238 414L239 415L238 414z"/>
<path style="fill:#526c7b; stroke:none;" d="M329 414L330 415L329 414z"/>
<path style="fill:#c9d1d9; stroke:none;" d="M350 414L351 415L350 414z"/>
<path style="fill:#9faeb8; stroke:none;" d="M378 414L379 415L378 414z"/>
<path style="fill:#526c7b; stroke:none;" d="M393 414L394 415L393 414M420 414L421 415L420 414z"/>
<path style="fill:#c9d1d9; stroke:none;" d="M441 414L442 415L441 414z"/>
<path style="fill:#eab399; stroke:none;" d="M168 415L172 419L168 415z"/>
<path style="fill:#728692; stroke:none;" d="M237 415L238 416L237 415z"/>
<path style="fill:#526c7b; stroke:none;" d="M328 415L329 416L328 415z"/>
<path style="fill:#c9d1d9; stroke:none;" d="M349 415L350 416L349 415z"/>
<path style="fill:#899090; stroke:none;" d="M378 415L379 416L378 415z"/>
<path style="fill:#728692; stroke:none;" d="M393 415L394 416L393 415z"/>
<path style="fill:#526c7b; stroke:none;" d="M421 415L422 416L421 415z"/>
<path style="fill:#c9d1d9; stroke:none;" d="M442 415L443 416L442 415z"/>
<path style="fill:#526c7b; stroke:none;" d="M168 416L169 417L168 416z"/>
<path style="fill:#899090; stroke:none;" d="M236 416L237 417L236 416z"/>
<path style="fill:#526c7b; stroke:none;" d="M327 416L328 417L327 416z"/>
<path style="fill:#c9d1d9; stroke:none;" d="M348 416L349 417L348 416z"/>
<path style="fill:#728692; stroke:none;" d="M378 416L379 417L378 416z"/>
<path style="fill:#9faeb8; stroke:none;" d="M393 416L394 417L393 416z"/>
<path style="fill:#526c7b; stroke:none;" d="M422 416L423 417L422 416z"/>
<path style="fill:#c9d1d9; stroke:none;" d="M443 416L444 417L443 416z"/>
<path style="fill:#526c7b; stroke:none;" d="M169 417L170 418L169 417z"/>
<path style="fill:#899090; stroke:none;" d="M235 417L236 418L235 417z"/>
<path style="fill:#526c7b; stroke:none;" d="M326 417L327 418L326 417z"/>
<path style="fill:#c9d1d9; stroke:none;" d="M347 417L348 418L347 417z"/>
<path style="fill:#526c7b; stroke:none;" d="M378 417L379 418L378 417z"/>
<path style="fill:#c9d1d9; stroke:none;" d="M393.333 417.667L393.667 418.333L393.333 417.667z"/>
<path style="fill:#526c7b; stroke:none;" d="M423 417L424 418L423 417z"/>
<path style="fill:#c9d1d9; stroke:none;" d="M444 417L445 418L444 417z"/>
<path style="fill:#526c7b; stroke:none;" d="M170 418L171 419L170 418z"/>
<path style="fill:#728692; stroke:none;" d="M234 418L235 419L234 418z"/>
<path style="fill:#526c7b; stroke:none;" d="M325 418L326 419L325 418z"/>
<path style="fill:#c9d1d9; stroke:none;" d="M346 418L347 419L346 418M377.333 418.667L377.667 419.333L377.333 418.667z"/>
<path style="fill:#526c7b; stroke:none;" d="M424 418L425 419L424 418M444 418L445 419L444 418z"/>
<path style="fill:#b0a798; stroke:none;" d="M172 419L173 420L172 419z"/>
<path style="fill:#728692; stroke:none;" d="M233 419L234 420L233 419z"/>
<path style="fill:#9faeb8; stroke:none;" d="M324 419L325 420L324 419z"/>
<path style="fill:#c9d1d9; stroke:none;" d="M345 419L346 420L345 419z"/>
<path style="fill:#526c7b; stroke:none;" d="M392 419L393 420L392 419M425 419L426 420L425 419z"/>
<path style="fill:#899090; stroke:none;" d="M445 419L446 420L445 419z"/>
<path style="fill:#b0a798; stroke:none;" d="M173 420L174 421L173 420z"/>
<path style="fill:#eab399; stroke:none;" d="M231 420L232 421L231 420z"/>
<path style="fill:#526c7b; stroke:none;" d="M232 420L233 421L232 420M324 420L325 421L324 420z"/>
<path style="fill:#c9d1d9; stroke:none;" d="M344 420L345 421L344 420z"/>
<path style="fill:#9faeb8; stroke:none;" d="M377 420L378 421L377 420z"/>
<path style="fill:#728692; stroke:none;" d="M392 420L393 421L392 420z"/>
<path style="fill:#526c7b; stroke:none;" d="M426 420L427 421L426 420z"/>
<path style="fill:#728692; stroke:none;" d="M38 421L39 422L38 421M174 421L175 422L174 421z"/>
<path style="fill:#b0a798; stroke:none;" d="M230 421L231 422L230 421z"/>
<path style="fill:#c9d1d9; stroke:none;" d="M323 421L323 425L324 425L323 421M343 421L344 422L343 421z"/>
<path style="fill:#728692; stroke:none;" d="M377 421L378 422L377 421z"/>
<path style="fill:#899090; stroke:none;" d="M392 421L393 422L392 421z"/>
<path style="fill:#526c7b; stroke:none;" d="M427 421L428 422L427 421z"/>
<path style="fill:#c9d1d9; stroke:none;" d="M446 421L447 422L446 421z"/>
<path style="fill:#526c7b; stroke:none;" d="M175 422L176 423L175 422z"/>
<path style="fill:#eab399; stroke:none;" d="M176 422L177 423L176 422z"/>
<path style="fill:#899090; stroke:none;" d="M229 422L230 423L229 422z"/>
<path style="fill:#c9d1d9; stroke:none;" d="M342 422L343 423L342 422z"/>
<path style="fill:#526c7b; stroke:none;" d="M377 422L378 423L377 422z"/>
<path style="fill:#9faeb8; stroke:none;" d="M392 422L393 423L392 422z"/>
<path style="fill:#526c7b; stroke:none;" d="M428 422L429 423L428 422z"/>
<path style="fill:#9faeb8; stroke:none;" d="M446.333 422.667L446.667 423.333L446.333 422.667z"/>
<path style="fill:#899090; stroke:none;" d="M177 423L178 424L177 423z"/>
<path style="fill:#b0a798; stroke:none;" d="M227 423L228 424L227 423z"/>
<path style="fill:#526c7b; stroke:none;" d="M228 423L229 424L228 423z"/>
<path style="fill:#9faeb8; stroke:none;" d="M342 423L343 424L342 423z"/>
<path style="fill:#c9d1d9; stroke:none;" d="M392 423L393 424L392 423z"/>
<path style="fill:#9faeb8; stroke:none;" d="M427 423L428 424L427 423z"/>
<path style="fill:#526c7b; stroke:none;" d="M178 424L179 425L178 424z"/>
<path style="fill:#b0a798; stroke:none;" d="M179 424L180 425L179 424z"/>
<path style="fill:#728692; stroke:none;" d="M226 424L227 425L226 424z"/>
<path style="fill:#9faeb8; stroke:none;" d="M343 424L344 425L343 424z"/>
<path style="fill:#c9d1d9; stroke:none;" d="M376 424L377 425L376 424z"/>
<path style="fill:#9faeb8; stroke:none;" d="M426 424L427 425L426 424z"/>
<path style="fill:#c9d1d9; stroke:none;" d="M446 424L447 425L446 424z"/>
<path style="fill:#526c7b; stroke:none;" d="M180 425L181 426L180 425z"/>
<path style="fill:#b0a798; stroke:none;" d="M181 425L182 426L181 425z"/>
<path style="fill:#899090; stroke:none;" d="M224 425L225 426L224 425z"/>
<path style="fill:#728692; stroke:none;" d="M324 425L325 426L324 425z"/>
<path style="fill:#9faeb8; stroke:none;" d="M344 425L345 426L344 425M376 425L377 426L376 425z"/>
<path style="fill:#728692; stroke:none;" d="M391 425L392 426L391 425z"/>
<path style="fill:#9faeb8; stroke:none;" d="M425 425L426 426L425 425z"/>
<path style="fill:#526c7b; stroke:none;" d="M445 425L446 426L445 425M182 426L183 427L182 426z"/>
<path style="fill:#b0a798; stroke:none;" d="M183 426L184 427L183 426z"/>
<path style="fill:#899090; stroke:none;" d="M222 426L223 427L222 426z"/>
<path style="fill:#c9d1d9; stroke:none;" d="M324 426L325 427L324 426z"/>
<path style="fill:#9faeb8; stroke:none;" d="M345 426L346 427L345 426z"/>
<path style="fill:#899090; stroke:none;" d="M376 426L377 427L376 426M391 426L392 427L391 426z"/>
<path style="fill:#9faeb8; stroke:none;" d="M424 426L425 427L424 426M445 426L446 427L445 426z"/>
<path style="fill:#526c7b; stroke:none;" d="M184 427L185 428L184 427z"/>
<path style="fill:#b0a798; stroke:none;" d="M185 427L186 428L185 427M219 427L220 428L219 427z"/>
<path style="fill:#728692; stroke:none;" d="M220 427L221 428L220 427z"/>
<path style="fill:#899090; stroke:none;" d="M325 427L326 428L325 427z"/>
<path style="fill:#9faeb8; stroke:none;" d="M346 427L347 428L346 427z"/>
<path style="fill:#526c7b; stroke:none;" d="M376 427L377 428L376 427z"/>
<path style="fill:#9faeb8; stroke:none;" d="M391 427L392 428L391 427M423 427L424 428L423 427z"/>
<path style="fill:#728692; stroke:none;" d="M444 427L445 428L444 427M187 428L188 429L187 428z"/>
<path style="fill:#b0a798; stroke:none;" d="M188 428L189 429L188 428z"/>
<path style="fill:#eab399; stroke:none;" d="M216 428L217 429L216 428z"/>
<path style="fill:#899090; stroke:none;" d="M217 428L218 429L217 428z"/>
<path style="fill:#526c7b; stroke:none;" d="M218 428L219 429L218 428z"/>
<path style="fill:#728692; stroke:none;" d="M326 428L327 429L326 428z"/>
<path style="fill:#9faeb8; stroke:none;" d="M347 428L348 429L347 428z"/>
<path style="fill:#c9d1d9; stroke:none;" d="M391 428L392 429L391 428z"/>
<path style="fill:#9faeb8; stroke:none;" d="M422 428L423 429L422 428z"/>
<path style="fill:#728692; stroke:none;" d="M443 428L444 429L443 428z"/>
<path style="fill:#526c7b; stroke:none;" d="M190 429L191 430L190 429z"/>
<path style="fill:#899090; stroke:none;" d="M191 429L192 430L191 429z"/>
<path style="fill:#b0a798; stroke:none;" d="M192 429L193 430L192 429z"/>
<path style="fill:#eab399; stroke:none;" d="M212 429L213 430L212 429z"/>
<path style="fill:#b0a798; stroke:none;" d="M213 429L214 430L213 429z"/>
<path style="fill:#728692; stroke:none;" d="M214 429L215 430L214 429M327 429L328 430L327 429z"/>
<path style="fill:#9faeb8; stroke:none;" d="M348 429L349 430L348 429z"/>
<path style="fill:#c9d1d9; stroke:none;" d="M375 429L376 430L375 429z"/>
<path style="fill:#9faeb8; stroke:none;" d="M421 429L422 430L421 429z"/>
<path style="fill:#728692; stroke:none;" d="M442 429L443 430L442 429z"/>
<path style="fill:#526c7b; stroke:none;" d="M194.667 430.333L195.333 430.667L194.667 430.333z"/>
<path style="fill:#899090; stroke:none;" d="M196 430L197 431L196 430z"/>
<path style="fill:#b0a798; stroke:none;" d="M197 430L197 431L201 431L197 430z"/>
<path style="fill:#eab399; stroke:none;" d="M201 430L201 431L205 431L201 430z"/>
<path style="fill:#b0a798; stroke:none;" d="M205 430L205 431L208 431L205 430z"/>
<path style="fill:#899090; stroke:none;" d="M208 430L209 431L208 430z"/>
<path style="fill:#728692; stroke:none;" d="M209 430L210 431L209 430z"/>
<path style="fill:#526c7b; stroke:none;" d="M210 430L211 431L210 430z"/>
<path style="fill:#728692; stroke:none;" d="M328 430L329 431L328 430z"/>
<path style="fill:#9faeb8; stroke:none;" d="M349 430L350 431L349 430M375 430L376 431L375 430z"/>
<path style="fill:#526c7b; stroke:none;" d="M390 430L391 431L390 430z"/>
<path style="fill:#9faeb8; stroke:none;" d="M420 430L421 431L420 430z"/>
<path style="fill:#728692; stroke:none;" d="M441 430L442 431L441 430M329 431L330 432L329 431z"/>
<path style="fill:#9faeb8; stroke:none;" d="M350 431L351 432L350 431z"/>
<path style="fill:#899090; stroke:none;" d="M375 431L376 432L375 431M390 431L391 432L390 431z"/>
<path style="fill:#9faeb8; stroke:none;" d="M419 431L420 432L419 431z"/>
<path style="fill:#728692; stroke:none;" d="M440 431L441 432L440 431M330 432L331 433L330 432z"/>
<path style="fill:#9faeb8; stroke:none;" d="M351 432L352 433L351 432z"/>
<path style="fill:#526c7b; stroke:none;" d="M375 432L376 433L375 432z"/>
<path style="fill:#9faeb8; stroke:none;" d="M390 432L391 433L390 432M418 432L419 433L418 432z"/>
<path style="fill:#728692; stroke:none;" d="M439 432L440 433L439 432M331 433L332 434L331 433z"/>
<path style="fill:#9faeb8; stroke:none;" d="M352 433L353 434L352 433z"/>
<path style="fill:#c9d1d9; stroke:none;" d="M390 433L391 434L390 433z"/>
<path style="fill:#9faeb8; stroke:none;" d="M417 433L418 434L417 433z"/>
<path style="fill:#728692; stroke:none;" d="M438 433L439 434L438 433M332 434L333 435L332 434z"/>
<path style="fill:#9faeb8; stroke:none;" d="M353 434L354 435L353 434z"/>
<path style="fill:#c9d1d9; stroke:none;" d="M374 434L375 435L374 434z"/>
<path style="fill:#9faeb8; stroke:none;" d="M416 434L417 435L416 434z"/>
<path style="fill:#728692; stroke:none;" d="M437 434L438 435L437 434M333 435L334 436L333 435z"/>
<path style="fill:#9faeb8; stroke:none;" d="M354 435L355 436L354 435M374 435L375 436L374 435z"/>
<path style="fill:#526c7b; stroke:none;" d="M389 435L390 436L389 435z"/>
<path style="fill:#9faeb8; stroke:none;" d="M415 435L416 436L415 435z"/>
<path style="fill:#728692; stroke:none;" d="M436 435L437 436L436 435M334 436L335 437L334 436z"/>
<path style="fill:#9faeb8; stroke:none;" d="M355 436L356 437L355 436z"/>
<path style="fill:#899090; stroke:none;" d="M374 436L375 437L374 436z"/>
<path style="fill:#728692; stroke:none;" d="M389 436L390 437L389 436z"/>
<path style="fill:#9faeb8; stroke:none;" d="M414 436L415 437L414 436z"/>
<path style="fill:#728692; stroke:none;" d="M435 436L436 437L435 436M335 437L336 438L335 437z"/>
<path style="fill:#9faeb8; stroke:none;" d="M356 437L357 438L356 437z"/>
<path style="fill:#728692; stroke:none;" d="M374 437L375 438L374 437z"/>
<path style="fill:#9faeb8; stroke:none;" d="M389 437L390 438L389 437M413 437L414 438L413 437z"/>
<path style="fill:#728692; stroke:none;" d="M434 437L435 438L434 437M336 438L337 439L336 438z"/>
<path style="fill:#9faeb8; stroke:none;" d="M357 438L358 439L357 438z"/>
<path style="fill:#c9d1d9; stroke:none;" d="M389 438L390 439L389 438z"/>
<path style="fill:#9faeb8; stroke:none;" d="M412 438L413 439L412 438z"/>
<path style="fill:#728692; stroke:none;" d="M433 438L434 439L433 438M19 439L20 440L19 439M337 439L338 440L337 439z"/>
<path style="fill:#9faeb8; stroke:none;" d="M358 439L359 440L358 439z"/>
<path style="fill:#c9d1d9; stroke:none;" d="M373 439L374 440L373 439z"/>
<path style="fill:#9faeb8; stroke:none;" d="M411 439L412 440L411 439z"/>
<path style="fill:#728692; stroke:none;" d="M432 439L433 440L432 439M338 440L339 441L338 440z"/>
<path style="fill:#c9d1d9; stroke:none;" d="M359 440L360 441L359 440z"/>
<path style="fill:#9faeb8; stroke:none;" d="M373 440L374 441L373 440z"/>
<path style="fill:#526c7b; stroke:none;" d="M388 440L389 441L388 440z"/>
<path style="fill:#c9d1d9; stroke:none;" d="M410 440L411 441L410 440z"/>
<path style="fill:#728692; stroke:none;" d="M431 440L432 441L431 440M339 441L340 442L339 441z"/>
<path style="fill:#526c7b; stroke:none;" d="M359 441L360 442L359 441z"/>
<path style="fill:#899090; stroke:none;" d="M373 441L374 442L373 441z"/>
<path style="fill:#728692; stroke:none;" d="M388 441L389 442L388 441M410 441L411 442L410 441M430 441L431 442L430 441M340 442L341 443L340 442z"/>
<path style="fill:#c9d1d9; stroke:none;" d="M360 442L361 443L360 442z"/>
<path style="fill:#728692; stroke:none;" d="M373 442L374 443L373 442z"/>
<path style="fill:#9faeb8; stroke:none;" d="M388.333 442.667L388.667 443.333L388.333 442.667z"/>
<path style="fill:#c9d1d9; stroke:none;" d="M409 442L410 443L409 442z"/>
<path style="fill:#728692; stroke:none;" d="M429 442L430 443L429 442M341 443L342 444L341 443z"/>
<path style="fill:#9faeb8; stroke:none;" d="M360 443L361 444L360 443z"/>
<path style="fill:#526c7b; stroke:none;" d="M373 443L374 444L373 443z"/>
<path style="fill:#9faeb8; stroke:none;" d="M409 443L409 446L410 446L409 443z"/>
<path style="fill:#728692; stroke:none;" d="M428 443L429 444L428 443M342 444L343 445L342 444z"/>
<path style="fill:#899090; stroke:none;" d="M360 444L361 445L360 444z"/>
<path style="fill:#c9d1d9; stroke:none;" d="M388 444L389 445L388 444z"/>
<path style="fill:#728692; stroke:none;" d="M427 444L428 445L427 444M343 445L344 446L343 445z"/>
<path style="fill:#9faeb8; stroke:none;" d="M360.333 445.667L360.667 446.333L360.333 445.667z"/>
<path style="fill:#526c7b; stroke:none;" d="M387 445L388 446L387 445z"/>
<path style="fill:#728692; stroke:none;" d="M426 445L427 446L426 445M344 446L345 447L344 446M373 446L374 447L373 446M387 446L388 447L387 446z"/>
<path style="fill:#c9d1d9; stroke:none;" d="M409 446L410 447L409 446z"/>
<path style="fill:#728692; stroke:none;" d="M425 446L426 447L425 446M345 447L346 448L345 447z"/>
<path style="fill:#9faeb8; stroke:none;" d="M373 447L374 448L373 447M387 447L388 448L387 447z"/>
<path style="fill:#526c7b; stroke:none;" d="M410 447L411 448L410 447z"/>
<path style="fill:#728692; stroke:none;" d="M424 447L425 448L424 447M346 448L347 449L346 448z"/>
<path style="fill:#9faeb8; stroke:none;" d="M359 448L360 449L359 448z"/>
<path style="fill:#526c7b; stroke:none;" d="M374 448L375 449L374 448M386 448L387 449L386 448z"/>
<path style="fill:#9faeb8; stroke:none;" d="M410 448L411 449L410 448z"/>
<path style="fill:#728692; stroke:none;" d="M423 448L424 449L423 448M347 449L348 450L347 449M358 449L359 450L358 449z"/>
<path style="fill:#c9d1d9; stroke:none;" d="M374 449L375 450L374 449M386 449L387 450L386 449z"/>
<path style="fill:#728692; stroke:none;" d="M411 449L412 450L411 449M422 449L423 450L422 449z"/>
<path style="fill:#899090; stroke:none;" d="M348 450L349 451L348 450z"/>
<path style="fill:#728692; stroke:none;" d="M357 450L358 451L357 450z"/>
<path style="fill:#c9d1d9; stroke:none;" d="M375 450L376 451L375 450z"/>
<path style="fill:#526c7b; stroke:none;" d="M376 450L377 451L376 450M384 450L385 451L384 450z"/>
<path style="fill:#c9d1d9; stroke:none;" d="M385 450L386 451L385 450z"/>
<path style="fill:#728692; stroke:none;" d="M412 450L413 451L412 450z"/>
<path style="fill:#899090; stroke:none;" d="M421 450L422 451L421 450z"/>
<path style="fill:#c9d1d9; stroke:none;" d="M349 451L350 452L349 451z"/>
<path style="fill:#728692; stroke:none;" d="M350 451L351 452L350 451M355 451L356 452L355 451z"/>
<path style="fill:#9faeb8; stroke:none;" d="M356 451L357 452L356 451z"/>
<path style="fill:#899090; stroke:none;" d="M377 451L378 452L377 451z"/>
<path style="fill:#526c7b; stroke:none;" d="M378 451L379 452L378 451M382 451L383 452L382 451z"/>
<path style="fill:#9faeb8; stroke:none;" d="M383 451L384 452L383 451z"/>
<path style="fill:#c9d1d9; stroke:none;" d="M413 451L414 452L413 451z"/>
<path style="fill:#728692; stroke:none;" d="M414 451L415 452L414 451M419 451L420 452L419 451z"/>
<path style="fill:#c9d1d9; stroke:none;" d="M420 451L421 452L420 451M352.667 452.333L353.333 452.667L352.667 452.333M379 452L379 453L382 453L379 452M416.667 452.333L417.333 452.667L416.667 452.333z"/>
<path style="fill:#728692; stroke:none;" d="M9 458L10 459L9 458M7 467L8 468L7 467z"/>
<path style="fill:#144151; stroke:none;" d="M7 491C7 497.422 4.58829 508.464 11 512L11 511C6.30611 506.403 8 498.166 8 492L278 492L253 491L198 491L7 491z"/>
<path style="fill:#013343; stroke:none;" d="M8 492L9.6034 510.258L25 512L68 512L262 512L262 511C248.659 499.225 270.359 497 278 497L278 492L8 492z"/>
<path style="fill:#526c7b; stroke:none;" d="M262 497L263 498L262 497z"/>
<path style="fill:#9faeb8; stroke:none;" d="M263 497L264 498L263 497z"/>
<path style="fill:#c9d1d9; stroke:none;" d="M264 497L265 498L264 497z"/>
<path style="fill:#144151; stroke:none;" d="M260 498L259 500L260 498z"/>
<path style="fill:#c9d1d9; stroke:none;" d="M261 498L262 499L261 498M260 499L261 500L260 499z"/>
<path style="fill:#9faeb8; stroke:none;" d="M259 500L260 501L259 500z"/>
<path style="fill:#415f6f; stroke:none;" d="M258 501L259 502L258 501z"/>
<path style="fill:#9faeb8; stroke:none;" d="M258 502L259 503L258 502z"/>
<path style="fill:#c9d1d9; stroke:none;" d="M258 503L258 506L259 506L258 503z"/>
<path style="fill:#9faeb8; stroke:none;" d="M258 506L259 507L258 506z"/>
<path style="fill:#415f6f; stroke:none;" d="M258 507L259 508L258 507z"/>
<path style="fill:#9faeb8; stroke:none;" d="M259 508L260 509L259 508z"/>
<path style="fill:#144151; stroke:none;" d="M259 509L261 511L259 509z"/>
<path style="fill:#c9d1d9; stroke:none;" d="M260 509L261 510L260 509z"/>
<path style="fill:#010101; stroke:none;" d="M511 509L509 512C511.251 511.527 512.118 511.14 511 509z"/>
<path style="fill:#c9d1d9; stroke:none;" d="M261 510L262 511L261 510z"/>
<path style="fill:#526c7b; stroke:none;" d="M262 511L263 512L262 511z"/>
<path style="fill:#9faeb8; stroke:none;" d="M263 511L264 512L263 511z"/>
<path style="fill:#c9d1d9; stroke:none;" d="M264 511L265 512L264 511z"/>
</svg>
